# xmcd
#
# Track frame offsets:
#	150
#	15178
#	32547
#	46637
#	60778
#	82282
#	101759
#	120434
#	135228
#	155801
#	182064
#	201037
#
# Disc length: 2995 seconds
#
# Revision: 1
# Processed by: cddbd v1.5.2PL0 Copyright (c) Steve Scherf et al.
# Submitted via: audiograbber 1.83.01
#
DISCID=890bb10c
DTITLE=Laurence Hélie - Laurence Hélie
DYEAR=2010
DGENRE=Country
TTITLE0=Kerosene
TTITLE1=Un Pont
TTITLE2=Plus Je Reste
TTITLE3=Tu Ne Me Vois Pas
TTITLE4=Les Portes Fermees
TTITLE5=Ici
TTITLE6=Tu Me Manques
TTITLE7=Tant Et Si Bien
TTITLE8=La Douleur De Perdre
TTITLE9=Je Ne Touche A Rien
TTITLE10=La Ville Me Joue Des Tours
TTITLE11=Quand On Est En Amour
EXTD=
EXTT0=
EXTT1=
EXTT2=
EXTT3=
EXTT4=
EXTT5=
EXTT6=
EXTT7=
EXTT8=
EXTT9=
EXTT10=
EXTT11=
PLAYORDER=
